<?xml version="1.0" standalone="no"?>
<!DOCTYPE svg PUBLIC "-//W3C//DTD SVG 20010904//EN"
 "http://www.w3.org/TR/2001/REC-SVG-20010904/DTD/svg10.dtd">
<svg version="1.0" xmlns="http://www.w3.org/2000/svg"
 width="200.000000pt" height="40.000000pt" viewBox="0 0 392.000000 80.000000"
 preserveAspectRatio="xMidYMid meet">

<g transform="translate(0.000000,80.000000) scale(0.100000,-0.100000)"
fill="#000000" stroke="none">
<path d="M210 655 c0 -4 148 -415 165 -458 6 -14 20 -17 79 -17 l73 0 47 150
c26 83 49 150 51 150 3 0 66 -194 91 -282 5 -15 17 -18 78 -18 l73 0 83 228
c46 125 85 233 88 240 3 10 -12 12 -68 10 l-73 -3 -44 -155 c-25 -85 -48 -158
-52 -162 -4 -5 -29 67 -56 157 l-48 166 -71 -3 -70 -3 -45 -157 c-26 -86 -49
-159 -52 -162 -3 -3 -25 61 -49 142 -24 81 -47 155 -52 165 -7 14 -22 17 -78
17 -39 0 -70 -2 -70 -5z"/>
<path d="M1219 644 c-214 -66 -203 -396 15 -455 68 -19 176 -7 231 25 171 100
140 375 -48 431 -62 18 -137 18 -198 -1z m176 -134 c52 -54 42 -164 -19 -201
-87 -53 -178 21 -163 133 13 96 118 135 182 68z"/>
<path d="M1760 645 c-25 -7 -57 -17 -72 -23 -27 -11 -27 -11 -12 -49 22 -54
25 -55 73 -38 69 24 137 20 167 -10 14 -14 24 -33 22 -43 -3 -14 -19 -18 -108
-22 -74 -4 -115 -11 -138 -23 -57 -31 -78 -115 -47 -180 26 -52 61 -71 140
-75 62 -3 74 -1 108 22 46 32 47 32 47 1 0 -24 2 -25 70 -25 l70 0 0 184 c0
173 -1 185 -23 217 -34 52 -97 79 -182 78 -38 0 -90 -7 -115 -14z m180 -283
c0 -40 -25 -70 -69 -83 -54 -16 -95 4 -99 48 -4 45 26 63 105 63 62 0 63 0 63
-28z"/>
<path d="M2322 646 c-96 -32 -162 -120 -162 -220 0 -145 86 -234 236 -244 90
-6 158 15 209 65 50 48 67 93 67 174 0 98 -42 167 -127 211 -51 27 -163 33
-223 14z m169 -132 c41 -37 48 -126 13 -179 -34 -52 -120 -57 -164 -10 -35 37
-40 122 -10 169 34 56 111 65 161 20z"/>
<path d="M2770 420 l0 -240 70 0 70 0 0 119 c0 65 3 132 6 150 9 45 49 81 91
81 79 0 93 -33 93 -216 l0 -134 70 0 70 0 0 119 c0 142 5 173 36 206 32 35 91
35 125 -1 23 -24 24 -33 27 -175 l4 -149 70 0 69 0 -3 189 c-3 174 -5 192 -24
218 -36 48 -82 73 -136 73 -64 0 -108 -19 -144 -64 l-30 -36 -23 31 c-34 45
-79 69 -133 69 -60 0 -95 -14 -135 -53 l-33 -31 0 42 0 42 -70 0 -70 0 0 -240z"/>
</g>
</svg>
