<svg version="1.1" id="Layer_1" xmlns="http://www.w3.org/2000/svg" xmlns:xlink="http://www.w3.org/1999/xlink" x="0px" y="0px"
	 width="100%" viewBox="0 0 448 90" enable-background="new 0 0 448 90" xml:space="preserve">
<path fill="#ffff" opacity="1.000000" stroke="none"
	d="
M334.000000,91.000000
	C222.666687,91.000000 111.833359,91.000000 1.000030,91.000000
	C1.000020,61.000015 1.000020,31.000034 1.000010,1.000038
	C150.333298,1.000025 299.666595,1.000025 448.999939,1.000013
	C448.999939,30.999962 448.999939,60.999924 448.999969,90.999939
	C410.833344,91.000000 372.666656,91.000000 334.000000,91.000000
M197.302765,22.307623
	C198.633392,25.556391 199.964020,28.805161 201.459030,32.455254
	C204.064163,31.879162 206.267166,31.410368 208.460983,30.901882
	C210.816956,30.355803 213.162674,29.765530 215.515732,29.206663
	C221.966797,27.674484 228.169479,32.129795 227.401978,38.000256
	C221.447983,38.000256 215.441284,37.694729 209.479095,38.079227
	C202.364227,38.538055 196.559006,41.482449 193.812454,48.645485
	C192.030502,53.292828 192.860367,63.055294 197.680328,67.364632
	C204.437271,73.405792 216.831924,74.012352 226.485825,68.024323
	C226.884125,67.777275 227.343628,67.628906 227.804550,67.421066
	C227.974533,68.626488 228.129044,69.722069 228.262558,70.668854
	C234.282959,70.668854 240.031723,70.668854 245.997910,70.668854
	C245.997910,57.693001 246.006622,45.046886 245.977173,32.400856
	C245.975327,31.605968 245.673492,30.812159 245.514450,30.017200
	C242.761795,16.258688 225.391891,13.097811 214.120636,15.984367
	C209.399445,17.618225 204.678238,19.252081 199.463867,21.007147
	C199.303131,21.060278 199.142395,21.113409 198.455093,21.106653
	C198.263535,21.391727 198.071976,21.676800 197.302765,22.307623
M341.000000,45.692825
	C341.000000,45.026909 340.987244,44.360710 341.001984,43.695122
	C341.163086,36.419281 345.191284,31.911545 351.447876,32.000004
	C357.744415,32.089027 359.998413,35.094093 359.999664,43.407650
	C360.001038,52.506821 360.000000,61.605988 360.000000,70.756836
	C366.562134,70.756836 372.629852,70.756836 379.000031,70.756836
	C379.000031,61.060440 378.935425,51.603432 379.023651,42.147850
	C379.078735,36.248669 382.823761,32.607769 387.964264,31.895264
	C394.235779,31.025991 398.031799,36.948708 398.010345,42.390411
	C397.973145,51.823925 398.000000,61.257698 398.000000,70.762985
	C404.215820,70.762985 409.950348,70.762985 416.000000,70.762985
	C416.000000,58.410213 416.032379,46.291733 415.991180,34.173504
	C415.947083,21.204496 403.110840,12.392898 390.513733,15.713282
	C384.165131,17.386662 379.980652,20.883982 376.539246,26.285534
	C373.973999,19.277098 368.555237,16.327164 362.387970,15.294420
	C354.245850,13.930985 346.897400,16.264317 340.802429,23.470877
	C340.802429,20.414846 340.802429,18.321663 340.802429,16.259975
	C334.420990,16.259975 328.344543,16.259975 322.243652,16.259975
	C322.243652,34.579342 322.243652,52.637653 322.243652,70.759010
	C328.557648,70.759010 334.625336,70.759010 341.000000,70.759010
	C341.000000,62.564266 341.000000,54.606609 341.000000,45.692825
M49.439713,17.950182
	C48.501663,17.300365 47.581181,16.120153 46.622665,16.088415
	C41.162628,15.907622 35.693527,16.000734 29.700222,16.000734
	C35.869923,32.806927 42.161938,49.052788 47.696854,65.552628
	C49.419907,70.689117 52.153919,71.405899 56.636322,71.063332
	C60.594673,70.760818 64.594429,71.000000 68.544296,71.000000
	C71.851173,60.278713 75.083954,49.797626 78.651390,38.231583
	C80.969772,45.961872 83.261009,52.616558 84.940605,59.422195
	C87.788078,70.959969 87.625832,71.000008 99.525635,71.000000
	C100.524551,71.000000 101.544319,70.868622 102.518707,71.023247
	C106.298622,71.623047 107.916061,69.939285 109.117775,66.340706
	C112.307961,56.787537 116.076569,47.428856 119.532532,37.962666
	C122.143349,30.811419 124.626869,23.613697 127.321579,16.000002
	C122.208443,16.000002 117.720863,16.146343 113.248451,15.948995
	C110.223473,15.815515 108.735420,16.535707 107.860825,19.865383
	C105.056885,30.540192 101.725479,41.076450 98.506477,51.974697
	C96.617775,45.747147 94.811211,39.812263 93.018486,33.873199
	C91.226532,27.936680 89.448448,21.995970 87.647141,16.000004
	C82.854759,16.000004 78.355537,16.202959 73.885452,15.929560
	C70.840836,15.743346 69.696136,16.880131 68.913033,19.742386
	C65.999458,30.391533 62.787113,40.958939 59.489620,52.231548
	C58.400105,48.384834 57.532269,45.312840 56.659855,42.242142
	C54.425858,34.379005 52.189827,26.516439 49.439713,17.950182
M177.238373,66.978104
	C178.335922,65.973633 179.432816,64.968437 180.531143,63.964806
	C192.750717,52.798847 191.137711,28.241169 176.137009,19.834084
	C172.052231,17.544794 167.229874,16.022707 162.579636,15.408757
	C153.677582,14.233457 145.183838,16.049629 137.843445,21.659521
	C123.698219,32.470005 124.918350,56.965725 139.306458,66.901154
	C148.509735,73.256302 167.270447,74.243401 177.238373,66.978104
M263.083038,21.394739
	C251.382004,31.701841 251.266464,48.347027 257.148926,58.447777
	C264.335693,70.788162 276.531189,73.690582 289.419495,71.764191
	C302.461609,69.814796 310.001526,64.531723 313.806183,49.421505
	C316.481110,38.798096 310.778992,25.003687 301.738617,19.977972
	C288.879395,12.829317 276.207397,13.624331 263.083038,21.394739
z"/>
<path fill="#FFFFFF" opacity="1.000000" stroke="none"
	d="
M341.000000,46.170891
	C341.000000,54.606609 341.000000,62.564266 341.000000,70.759010
	C334.625336,70.759010 328.557648,70.759010 322.243652,70.759010
	C322.243652,52.637653 322.243652,34.579342 322.243652,16.259975
	C328.344543,16.259975 334.420990,16.259975 340.802429,16.259975
	C340.802429,18.321663 340.802429,20.414846 340.802429,23.470877
	C346.897400,16.264317 354.245850,13.930985 362.387970,15.294420
	C368.555237,16.327164 373.973999,19.277098 376.539246,26.285534
	C379.980652,20.883982 384.165131,17.386662 390.513733,15.713282
	C403.110840,12.392898 415.947083,21.204496 415.991180,34.173504
	C416.032379,46.291733 416.000000,58.410213 416.000000,70.762985
	C409.950348,70.762985 404.215820,70.762985 398.000000,70.762985
	C398.000000,61.257698 397.973145,51.823925 398.010345,42.390411
	C398.031799,36.948708 394.235779,31.025991 387.964264,31.895264
	C382.823761,32.607769 379.078735,36.248669 379.023651,42.147850
	C378.935425,51.603432 379.000031,61.060440 379.000031,70.756836
	C372.629852,70.756836 366.562134,70.756836 360.000000,70.756836
	C360.000000,61.605988 360.001038,52.506821 359.999664,43.407650
	C359.998413,35.094093 357.744415,32.089027 351.447876,32.000004
	C345.191284,31.911545 341.163086,36.419281 341.001984,43.695122
	C340.987244,44.360710 341.000000,45.026909 341.000000,46.170891
z"/>
<path fill="#FFFFFF" opacity="1.000000" stroke="none"
	d="
M49.697159,18.301914
	C52.189827,26.516439 54.425858,34.379005 56.659855,42.242142
	C57.532269,45.312840 58.400105,48.384834 59.489620,52.231548
	C62.787113,40.958939 65.999458,30.391533 68.913033,19.742386
	C69.696136,16.880131 70.840836,15.743346 73.885452,15.929560
	C78.355537,16.202959 82.854759,16.000004 87.647141,16.000004
	C89.448448,21.995970 91.226532,27.936680 93.018486,33.873199
	C94.811211,39.812263 96.617775,45.747147 98.506477,51.974697
	C101.725479,41.076450 105.056885,30.540192 107.860825,19.865383
	C108.735420,16.535707 110.223473,15.815515 113.248451,15.948995
	C117.720863,16.146343 122.208443,16.000002 127.321579,16.000002
	C124.626869,23.613697 122.143349,30.811419 119.532532,37.962666
	C116.076569,47.428856 112.307961,56.787537 109.117775,66.340706
	C107.916061,69.939285 106.298622,71.623047 102.518707,71.023247
	C101.544319,70.868622 100.524551,71.000000 99.525635,71.000000
	C87.625832,71.000008 87.788078,70.959969 84.940605,59.422195
	C83.261009,52.616558 80.969772,45.961872 78.651390,38.231583
	C75.083954,49.797626 71.851173,60.278713 68.544296,71.000000
	C64.594429,71.000000 60.594673,70.760818 56.636322,71.063332
	C52.153919,71.405899 49.419907,70.689117 47.696854,65.552628
	C42.161938,49.052788 35.869923,32.806927 29.700222,16.000734
	C35.693527,16.000734 41.162628,15.907622 46.622665,16.088415
	C47.581181,16.120153 48.501663,17.300365 49.697159,18.301914
z"/>
<path fill="#FFFFFF" opacity="1.000000" stroke="none"
	d="
M176.862000,67.014374
	C167.270447,74.243401 148.509735,73.256302 139.306458,66.901154
	C124.918350,56.965725 123.698219,32.470005 137.843445,21.659521
	C145.183838,16.049629 153.677582,14.233457 162.579636,15.408757
	C167.229874,16.022707 172.052231,17.544794 176.137009,19.834084
	C191.137711,28.241169 192.750717,52.798847 180.531143,63.964806
	C179.432816,64.968437 178.335922,65.973633 176.862000,67.014374
M168.723511,50.806156
	C169.148712,47.932625 170.117310,45.016693 169.897018,42.193539
	C169.241669,33.795067 161.462708,27.485962 154.201065,31.094828
	C148.767456,33.795200 146.350983,38.436867 146.907532,44.799923
	C147.385452,50.264034 150.197372,55.458202 154.379517,56.828026
	C159.806396,58.605556 164.692932,56.650852 168.723511,50.806156
z"/>
<path fill="#FFFFFF" opacity="1.000000" stroke="none"
	d="
M263.407898,21.209465
	C276.207397,13.624331 288.879395,12.829317 301.738617,19.977972
	C310.778992,25.003687 316.481110,38.798096 313.806183,49.421505
	C310.001526,64.531723 302.461609,69.814796 289.419495,71.764191
	C276.531189,73.690582 264.335693,70.788162 257.148926,58.447777
	C251.266464,48.347027 251.382004,31.701841 263.407898,21.209465
M291.391602,33.043159
	C287.875763,31.363071 284.834930,29.009346 280.234711,30.806246
	C272.772186,33.721188 270.898315,42.106499 272.266907,47.278305
	C273.433319,51.686104 275.364380,56.291546 280.994659,56.977482
	C287.486206,57.768341 292.285461,55.565769 294.149597,50.171555
	C296.116333,44.480324 295.846222,38.703747 291.391602,33.043159
z"/>
<path fill="#FE9E0D" opacity="1.000000" stroke="none"
	d="
M214.958084,15.884912
	C225.391891,13.097811 242.761795,16.258688 245.514450,30.017200
	C245.673492,30.812159 245.975327,31.605968 245.977173,32.400856
	C246.006622,45.046886 245.997910,57.693001 245.997910,70.668854
	C240.031723,70.668854 234.282959,70.668854 228.262558,70.668854
	C228.129044,69.722069 227.974533,68.626488 227.804550,67.421066
	C227.343628,67.628906 226.884125,67.777275 226.485825,68.024323
	C216.831924,74.012352 204.437271,73.405792 197.680328,67.364632
	C192.860367,63.055294 192.030502,53.292828 193.812454,48.645485
	C196.559006,41.482449 202.364227,38.538055 209.479095,38.079227
	C215.441284,37.694729 221.447983,38.000256 227.401978,38.000256
	C228.169479,32.129795 221.966797,27.674484 215.515732,29.206663
	C213.162674,29.765530 210.816956,30.355803 208.460983,30.901882
	C206.267166,31.410368 204.064163,31.879162 201.459030,32.455254
	C199.964020,28.805161 198.633392,25.556391 197.817108,22.067347
	C198.625290,21.682806 198.842026,21.462629 198.981659,21.166540
	C199.142395,21.113409 199.303131,21.060278 199.767944,21.277739
	C204.173096,21.016302 208.335953,20.742634 212.335541,19.786289
	C213.456573,19.518236 214.097137,17.240690 214.958084,15.884912
M227.996445,50.326298
	C227.744019,49.608547 227.491165,48.265759 227.239227,48.265934
	C222.806961,48.268997 218.294922,48.002090 213.984680,48.795769
	C212.412308,49.085304 210.578354,51.853954 210.254074,53.731689
	C210.014252,55.120445 211.652008,57.490067 213.097275,58.401314
	C219.906937,62.694847 226.231171,59.524380 227.996445,50.326298
z"/>
<path fill="#FE9E0D" opacity="1.000000" stroke="none"
	d="
M214.539368,15.934639
	C214.097137,17.240690 213.456573,19.518236 212.335541,19.786289
	C208.335953,20.742634 204.173096,21.016302 200.014542,21.217134
	C204.678238,19.252081 209.399445,17.618225 214.539368,15.934639
z"/>
<path fill="#FE9E0D" opacity="1.000000" stroke="none"
	d="
M198.718384,21.136597
	C198.842026,21.462629 198.625290,21.682806 198.105927,21.894472
	C198.071976,21.676800 198.263535,21.391727 198.718384,21.136597
z"/>
<path fill="#000000" opacity="1.000000" stroke="none"
	d="
M168.418610,51.070129
	C164.692932,56.650852 159.806396,58.605556 154.379517,56.828026
	C150.197372,55.458202 147.385452,50.264034 146.907532,44.799923
	C146.350983,38.436867 148.767456,33.795200 154.201065,31.094828
	C161.462708,27.485962 169.241669,33.795067 169.897018,42.193539
	C170.117310,45.016693 169.148712,47.932625 168.418610,51.070129
z"/>
<path fill="#000000" opacity="1.000000" stroke="none"
	d="
M291.674683,33.321312
	C295.846222,38.703747 296.116333,44.480324 294.149597,50.171555
	C292.285461,55.565769 287.486206,57.768341 280.994659,56.977482
	C275.364380,56.291546 273.433319,51.686104 272.266907,47.278305
	C270.898315,42.106499 272.772186,33.721188 280.234711,30.806246
	C284.834930,29.009346 287.875763,31.363071 291.674683,33.321312
z"/>
<path fill="#000000" opacity="1.000000" stroke="none"
	d="
M227.997620,50.766075
	C226.231171,59.524380 219.906937,62.694847 213.097275,58.401314
	C211.652008,57.490067 210.014252,55.120445 210.254074,53.731689
	C210.578354,51.853954 212.412308,49.085304 213.984680,48.795769
	C218.294922,48.002090 222.806961,48.268997 227.239227,48.265934
	C227.491165,48.265759 227.744019,49.608547 227.997620,50.766075
z"/>
</svg>